<?xml version="1.0" encoding="UTF-8" standalone="no"?>
<!-- Created with Inkscape (http://www.inkscape.org/) -->

<svg
   xmlns:dc="http://purl.org/dc/elements/1.1/"
   xmlns:cc="http://creativecommons.org/ns#"
   xmlns:rdf="http://www.w3.org/1999/02/22-rdf-syntax-ns#"
   xmlns:svg="http://www.w3.org/2000/svg"
   xmlns="http://www.w3.org/2000/svg"
   xmlns:sodipodi="http://sodipodi.sourceforge.net/DTD/sodipodi-0.dtd"
   xmlns:inkscape="http://www.inkscape.org/namespaces/inkscape"
   version="1.1"
   width="800"
   height="1200"
   id="svg2"
   inkscape:version="0.48.4 r9939"
   sodipodi:docname="player-2.svg">
  <sodipodi:namedview
     pagecolor="#ffffff"
     bordercolor="#666666"
     borderopacity="1"
     objecttolerance="10"
     gridtolerance="10"
     guidetolerance="10"
     inkscape:pageopacity="0"
     inkscape:pageshadow="2"
     inkscape:window-width="1164"
     inkscape:window-height="608"
     id="namedview7"
     showgrid="false"
     inkscape:zoom="0.22425739"
     inkscape:cx="372.04724"
     inkscape:cy="526.18109"
     inkscape:window-x="10"
     inkscape:window-y="34"
     inkscape:window-maximized="0"
     inkscape:current-layer="svg2" />
  <defs
     id="defs4" />
  <metadata
     id="metadata7">
    <rdf:RDF>
      <cc:Work
         rdf:about="">
        <dc:format>image/svg+xml</dc:format>
        <dc:type
           rdf:resource="http://purl.org/dc/dcmitype/StillImage" />
        <dc:title></dc:title>
      </cc:Work>
    </rdf:RDF>
  </metadata>
  <g
     id="layer1"
     transform="translate(29.124668,22.700985)">
    <path
       style="fill:#000000"
       id="path2996"
       d="m 195.44771,1169.6836 c 0.38777,-6.1875 1.13854,-13.05 1.6684,-15.25 0.52985,-2.2 1.18419,-11.65 1.45407,-21 0.26988,-9.35 0.89686,-24.425 1.3933,-33.5 0.49643,-9.075 0.52541,-18.525 0.0644,-21 -0.46101,-2.475 -0.67717,-9.6319 -0.48036,-15.9042 0.3677,-11.7186 -0.36456,-15.0958 -3.27317,-15.0958 -2.38728,0 -17.74837,4.8427 -24.77436,7.8103 -5.48362,2.3162 -7.55032,2.5734 -24.01368,2.989 l -18.01367,0.4547 -5.48633,-5.1186 c -3.01747,-2.8153 -6.7719,-6.2675 -8.34317,-7.6717 -2.57287,-2.2992 -2.79248,-2.9822 -2.20932,-6.871 0.58424,-3.896 0.0603,-5.5112 -5.36136,-16.5274 -7.42372,-15.0842 -7.92159,-17.4266 -5.28317,-24.85637 3.10109,-8.7327 4.86875,-15.5182 7.72362,-29.6487 3.12984,-15.4915 3.41932,-26.893 0.86477,-34.0602 -1.49014,-4.1809 -1.7979,-8.6043 -1.87853,-27 -0.0995,-22.7107 -0.71998,-28.5844 -6.02095,-57 -7.783634,-41.7238 -8.347394,-46.1616 -9.464084,-74.5 -2.41251,-61.22303 -1.8643,-78.29576 3.60616,-112.30391 l 1.57702,-9.80388 -2.79052,-4.02674 c -2.60398,-3.75754 -2.78487,-4.67314 -2.7058,-13.69611 0.0466,-5.31816 0.8057,-13.49438 1.68686,-18.16938 4.48616,-23.80112 7.570164,-44.47292 8.530754,-57.18084 0.60707,-8.03097 1.36975,-11.75241 3.07413,-15 3.32019,-6.32639 7.85741,-26.54477 9.04805,-40.31916 1.79658,-20.78459 6.83087,-54.567 9.83538,-66 4.52186,-17.20695 6.7781,-26.12464 9.61429,-38 1.87849,-7.8654 4.27719,-14.28836 8.41757,-22.5396 3.18475,-6.34677 6.1084,-13.23437 6.49699,-15.30577 0.97822,-5.21433 6.89479,-10.8756 14.23019,-13.61615 3.22564,-1.20512 6.5398,-2.78049 7.3648,-3.50081 0.825,-0.72032 3.975,-2.53676 7,-4.03654 3.025,-1.49977 7.975,-4.198 11,-5.99605 3.025,-1.79806 15.05727,-6.49948 26.73838,-10.44762 17.21897,-5.81988 26.01921,-9.54676 46.5,-19.6926 36.92329,-18.29117 37.53429,-18.68598 41.7679,-26.98861 1.92846,-3.78194 5.0011,-8.95645 6.82808,-11.49892 4.28131,-5.95795 5.02283,-11.15108 2.4294,-17.01396 -1.07805,-2.4371 -2.27546,-6.21586 -2.66093,-8.39723 -2.0891,-11.82237 -6.05469,-18.46614 -11.02222,-18.46614 -2.38936,0 -7.5806,-4.39916 -7.5806,-6.42396 0,-0.63317 -2.27851,-3.38431 -5.06337,-6.11363 -4.83544,-4.73903 -5.03613,-5.14782 -4.45838,-9.0813 0.53948,-3.67297 0.20166,-4.64726 -3.12038,-8.99937 -3.6476,-4.77861 -8.29495,-15.88103 -8.33678,-19.9164 -0.0116,-1.11906 -0.92109,-4.59532 -2.02109,-7.72502 -1.1,-3.12969 -2.01764,-7.3891 -2.0392,-9.46534 -0.0697,-6.70904 -4.94368,-26.79235 -9.38924,-38.68828 l -2.58353,-6.91329 3.51878,-7.12147 c 3.34125,-6.762161 3.53494,-7.725151 3.83889,-19.086701 0.25164,-9.40628 0.75947,-12.95382 2.37453,-16.58765 3.03285,-6.82383 8.67506,-12.48682 15.85515,-15.91357 3.52818,-1.68384 7.26369,-4.33364 8.44192,-5.98831 2.48783,-3.49385 8.31404,-7.07849 17.10314,-10.52291 3.71889,-1.45742 7.99467,-4.11045 10.35669,-6.42609 5.2009,-5.0988 10.79381,-6.99269 22.52067,-7.62605 5.22621,-0.28227 13.5119,-1.19869 18.41264,-2.0365 9.35754,-1.59973 14.02637,-1.40306 29.99131,1.26331 13.3483,2.22935 20.97177,6.60441 26.4886,15.20165 1.74393,2.71769 5.03855,6.23041 7.32137,7.80606 2.28282,1.57565 6.65656,6.30893 9.71943,10.51839 3.06287,4.20946 7.31497,10.05946 9.44912,13 9.07426,12.50298 15.82526,32.17861 17.61771,51.346431 0.51432,5.5 2.30018,15.3916 3.96858,21.98132 1.66839,6.58973 3.03344,14.38976 3.03344,17.33339 0,5.91786 -2.92034,18.44795 -6.17242,26.48354 -1.15785,2.86096 -2.97197,9.92675 -4.03137,15.70175 -1.0594,5.775 -2.34648,12.75 -2.86018,15.5 -0.51369,2.75 -0.86971,9.34213 -0.79115,14.64919 0.12249,8.27407 -0.16267,10.14353 -2.00101,13.11803 -2.80979,4.54634 -2.7045,6.27851 0.54643,8.98939 9.0011,7.50584 11.8057,10.8336 16.98282,20.15075 10.42435,18.76044 11.53656,20.15352 18.027,22.57933 9.26105,3.46133 17.29091,8.13499 19.93679,11.60392 1.51623,1.98788 4.62558,4.0828 8.15669,5.49555 3.13852,1.25568 7.0564,3.28351 8.7064,4.50627 1.65,1.22277 4.85498,2.71655 7.12217,3.31952 2.2672,0.60296 9.0172,3.60895 15,6.67996 5.98281,3.07102 17.5861,8.98438 25.78511,13.14081 l 14.90727,7.55715 12.92296,13.10507 c 7.10763,7.20778 13.51815,14.23571 14.24562,15.61761 2.2197,4.21661 8.42844,22.77586 11.69557,34.96058 2.58999,9.65944 3.12859,13.63295 3.32449,24.52687 0.4174,23.20613 2.4487,33.73075 10.0164,51.89667 3.1128,7.47237 3.8487,10.67425 4.5963,20 0.519,6.47297 1.9787,14.85655 3.5004,20.10333 3.4902,12.03388 3.9306,18.98505 1.9787,31.23203 -1.8658,11.70653 -2.4272,13.45837 -6.0003,18.72359 -1.4271,2.10291 -2.5947,5.02194 -2.5947,6.48673 0,3.74338 4.2577,19.62168 6.7953,25.3416 2.3412,5.27734 7.9399,24.16086 8.8044,29.69595 0.3024,1.93605 0.1296,4.63849 -0.3841,6.00542 -0.6513,1.73348 -0.4867,3.79758 0.5442,6.82324 1.7608,5.16753 1.1602,10.02809 -1.7206,13.92455 -2.1025,2.84379 -2.103,2.86726 -0.4481,19.30707 1.9825,19.69329 1.4936,44.65109 -1.5467,78.95982 -4.3801,49.42782 -7.2852,70.69792 -13.993,102.45252 -6.1927,29.3162 -8.0403,42.8924 -8.0643,59.2581 -0.01,6.0391 -0.653,10.8233 -2.0586,15.2894 -1.1251,3.575 -2.29187,10.1 -2.59286,14.5 -0.48793,7.1327 -0.21056,9.0044 2.55856,17.2649 1.7082,5.0957 3.1058,10.8174 3.1058,12.715 0,3.7509 1.3904,8.3276 6.6072,21.74857 1.866,4.8006 3.3928,9.7222 3.3928,10.9368 0,1.2146 -3.15,7.4402 -7,13.8347 -6.6346,11.0194 -7,11.9453 -7,17.7371 0,5.6501 -0.2316,6.2861 -3.07196,8.4368 -1.68959,1.2794 -5.02445,4.2386 -7.41081,6.5761 -3.66287,3.5879 -4.97054,4.25 -8.39364,4.25 -2.23015,0 -9.02134,0.6927 -15.09154,1.5394 -6.0702,0.8466 -13.84817,1.4091 -17.28438,1.25 l -6.24766,-0.2894 -0.67028,21.5 c -0.40285,12.9221 -1.32172,24.8913 -2.30307,30 -0.89803,4.675 -2.27081,12.775 -3.05062,18 -0.77981,5.225 -1.90113,12.425 -2.49183,16 -0.5907,3.575 -1.29437,9.65 -1.56371,13.5 -0.26934,3.85 -0.72946,7.7875 -1.02248,8.75 -0.50118,1.6462 -4.94176,1.75 -74.85906,1.75 l -74.32627,0 -2.57394,-6.4296 c -2.69115,-6.7224 -4.57635,-16.2615 -7.02971,-35.5704 -3.87892,-30.5286 -4.04987,-33.6152 -2.67912,-48.3732 2.05158,-22.088 2.34333,-30.0602 1.5827,-43.2477 -0.72164,-12.5117 -1.80661,-15.971 -4.66505,-14.8741 -1.20152,0.4611 -1.76798,2.6525 -2.27586,8.8044 -1.57399,19.0656 -3.34609,26.5554 -8.67286,36.6559 -2.76563,5.2441 -6.61129,14.7097 -8.54591,21.0347 -3.05677,9.9937 -3.43639,12.3527 -2.89828,18.0102 0.89296,9.3885 -0.92098,23.1763 -5.47358,41.6049 -2.18959,8.8633 -3.98107,17.5258 -3.98107,19.25 l 0,3.1349 -83.12865,0 -83.12866,0 0.70502,-11.25 z M 586.5,1047.5804 c 5.37146,-2.9807 6.11976,-3.7913 7.14325,-7.7381 0.6288,-2.4248 2.3119,-6.8837 3.74024,-9.9087 1.9718,-4.176 2.59932,-7.0876 2.60674,-12.095 0.0132,-8.882 -1.32408,-10.1079 -10.58458,-9.7034 -6.82439,0.2982 -6.83093,0.3013 -8.00725,3.7984 -0.64751,1.925 -1.68046,6.875 -2.29545,11 -0.61499,4.125 -2.3064,11.4236 -3.75869,16.2191 -2.1679,7.1584 -2.4131,8.993 -1.36994,10.25 1.98039,2.3862 5.99354,1.8023 12.52568,-1.8223 z m -407.62106,-16.1855 c 1.166,-1.0913 0.91692,-2.655 -1.6129,-10.126 -1.64551,-4.8594 -3.79001,-11.9853 -4.76556,-15.8353 -2.07873,-8.20377 -4.37567,-10.87807 -8.12017,-9.45447 -1.38078,0.525 -4.25192,0.9545 -6.38031,0.9545 -2.12839,0 -5.08825,0.4633 -6.57747,1.0295 -2.67554,1.0172 -2.70066,1.113 -2.11713,8.07327 0.43476,5.1858 1.32512,8.2775 3.37534,11.7206 1.53164,2.5721 3.60102,6.4601 4.59861,8.6398 2.225,4.8617 1.79021,4.4509 6.39624,6.0446 4.38968,1.5189 13.10312,0.9191 15.20335,-1.0465 z m 22.3289,-30.1983 c 1.664,-3.76167 1.87378,-5.70237 1.31019,-12.12087 -0.39386,-4.4856 -0.25406,-8.7321 0.33848,-10.281 0.55522,-1.4514 1.50996,-11.8014 2.12164,-23 0.61168,-11.1986 1.72777,-22.6111 2.48021,-25.3611 1.59666,-5.8355 2.83028,-11.2113 5.76316,-25.1144 l 2.13364,-10.1143 -2.30271,-8.0871 c -2.07592,-7.2907 -2.25352,-9.5446 -1.80324,-22.8857 0.4082,-12.0946 0.97922,-16.4001 3.12513,-23.5636 1.44411,-4.8208 2.62566,-11 2.62566,-13.7314 0,-2.7315 1.575,-11.6708 3.5,-19.8652 2.35048,-10.0056 3.5,-17.3412 3.5,-22.3349 0,-4.0899 0.43263,-9.8813 0.9614,-12.8698 3.11442,-17.60211 2.91292,-48.01464 -0.5006,-75.5542 -1.81094,-14.61029 -1.81418,-15.55525 -0.096,-28 3.96389,-28.71033 4.07636,-31.21355 1.77878,-39.58831 -1.15046,-4.19348 -2.79868,-11.04697 -3.6627,-15.22997 -1.82375,-8.82934 -4.89736,-16.56114 -6.58351,-16.56114 -0.64554,0 -3.08615,1.6875 -5.42358,3.75 -2.33743,2.0625 -5.37661,4.52181 -6.75373,5.46514 -1.65813,1.13582 -2.8825,3.33133 -3.62486,6.5 -2.20722,9.42125 -4.08351,24.94022 -4.0893,33.82297 -0.007,11.18489 -2.50877,17.31635 -7.75664,19.01263 -1.78791,0.57791 -3.76842,1.56842 -4.40112,2.20112 -2.02638,2.02638 -2.73525,10.04423 -3.7794,42.74814 -0.56192,17.6 -1.48977,36.5 -2.06189,42 -1.0643,10.23155 -5.54285,33.69662 -9.1613,48.00002 -2.74999,10.8704 -7.53158,37.1858 -8.83647,48.6312 -0.58747,5.1529 -1.50484,12.3805 -2.0386,16.0614 -0.53377,3.681 -0.97048,14.406 -0.97048,23.8334 0,14.0375 0.3735,18.6036 2.06298,25.2207 2.78884,10.9228 4.47001,13.8901 13.30204,23.4787 8.00547,8.6913 11.44035,14.3881 14.0591,23.3173 0.88029,3.0015 2.87939,7.9782 4.44246,11.0593 2.53985,5.0065 2.85472,6.6974 2.96216,15.9076 0.10278,8.8115 1.10092,15.15707 2.87167,18.25667 0.80448,1.4082 2.50756,-0.4822 4.50743,-5.0033 z m 377.8143,-62.95897 c 6.98144,-11.0086 8.15069,-38.599 3.50142,-82.6217 -2.79983,-26.5109 -9.34538,-68.4533 -11.61405,-74.4203 -2.5606,-6.7347 -3.82192,2.7213 -5.91245,44.3252 -1.08343,21.5614 -1.05669,22.2757 1.12283,30 1.97356,6.9944 2.25038,10.4662 2.38511,29.9128 0.0838,12.1 0.48706,24.2922 0.89606,27.0937 0.43014,2.9464 0.27302,7.689 -0.37272,11.25 -1.1656,6.4279 0.0168,17.2908 2.16437,19.8853 1.5536,1.8769 4.48832,-0.1566 7.82943,-5.425 z"
       inkscape:connector-curvature="0" />
  </g>
</svg>
