<?xml version="1.0" encoding="UTF-8" standalone="no"?>
<!-- Created with Inkscape (http://www.inkscape.org/) -->

<svg
   xmlns:dc="http://purl.org/dc/elements/1.1/"
   xmlns:cc="http://creativecommons.org/ns#"
   xmlns:rdf="http://www.w3.org/1999/02/22-rdf-syntax-ns#"
   xmlns:svg="http://www.w3.org/2000/svg"
   xmlns="http://www.w3.org/2000/svg"
   xmlns:sodipodi="http://sodipodi.sourceforge.net/DTD/sodipodi-0.dtd"
   xmlns:inkscape="http://www.inkscape.org/namespaces/inkscape"
   version="1.1"
   width="800"
   height="1200"
   id="svg2"
   inkscape:version="0.48.4 r9939"
   sodipodi:docname="player-3.svg">
  <sodipodi:namedview
     pagecolor="#ffffff"
     bordercolor="#666666"
     borderopacity="1"
     objecttolerance="10"
     gridtolerance="10"
     guidetolerance="10"
     inkscape:pageopacity="0"
     inkscape:pageshadow="2"
     inkscape:window-width="1164"
     inkscape:window-height="608"
     id="namedview7"
     showgrid="false"
     inkscape:zoom="0.22425739"
     inkscape:cx="372.04724"
     inkscape:cy="526.18109"
     inkscape:window-x="10"
     inkscape:window-y="34"
     inkscape:window-maximized="0"
     inkscape:current-layer="svg2" />
  <defs
     id="defs4" />
  <metadata
     id="metadata7">
    <rdf:RDF>
      <cc:Work
         rdf:about="">
        <dc:format>image/svg+xml</dc:format>
        <dc:type
           rdf:resource="http://purl.org/dc/dcmitype/StillImage" />
        <dc:title />
      </cc:Work>
    </rdf:RDF>
  </metadata>
  <g
     id="layer1"
     transform="translate(-197.5806,-17.351166)">
    <path
       d="m 351.37689,1205.1666 c -1.45976,-11.1457 -1.53716,-15.2183 -0.56645,-29.8024 l 1.12437,-16.8924 -3.01765,-9.4477 c -1.65971,-5.1962 -4.46889,-16.1976 -6.24262,-24.4476 -3.48093,-16.1905 -3.48152,-16.0658 0.16986,-35.6409 1.21009,-6.4873 1.16508,-6.8273 -1.94568,-14.6994 -1.75144,-4.4322 -3.18443,-8.9232 -3.18443,-9.9801 0,-3.372 -6.66707,-23.5121 -9.33046,-28.1857 -5.31813,-9.3322 -7.09539,-22.7012 -4.13377,-31.0953 1.21583,-3.446 1.40216,-6.85747 0.89443,-16.37573 -0.61386,-11.5079 -0.51215,-12.42981 2.37457,-21.52289 2.15372,-6.78415 3.0186,-11.50115 3.02534,-16.5 0.005,-3.85 0.94553,-12.34579 2.08966,-18.87953 1.14413,-6.53374 2.08023,-13.73671 2.08023,-16.0066 0,-2.26989 0.46941,-5.6991 1.04313,-7.62047 0.57372,-1.92137 1.02996,-10.6934 1.01385,-19.4934 -0.0167,-9.11806 0.58324,-19.87109 1.39478,-25 1.44335,-9.1219 3.26476,-62.73186 2.80295,-82.5 -0.13491,-5.775 -0.23414,-14.04989 -0.22049,-18.38865 0.0262,-8.32259 -1.40893,-11.61135 -5.06676,-11.61135 -5.08839,0 -4.87787,-6.4935 0.55113,-17 7.28355,-14.09553 8.27604,-17.08553 7.73293,-23.2964 -0.41656,-4.76362 -0.19278,-6.02607 1.256,-7.08544 1.88833,-1.38078 2.05276,-3.61206 0.94294,-12.79579 -0.735,-6.08213 -0.83522,-5.90017 6.79954,-12.3451 2.37598,-2.00569 2.20449,-5.03121 -0.80466,-14.19637 -3.42723,-10.43855 -9.11608,-43.82762 -11.03741,-64.7809 -1.72032,-18.76124 -1.42371,-38.20263 1.1824,-77.5 3.89632,-58.75232 10.21845,-97.83223 18.44228,-114 7.65661,-15.05262 15.85445,-21.92613 41.53746,-34.8272 9.98736,-5.01685 14.94231,-6.7523 30.42993,-10.65793 33.18661,-8.36892 56.43865,-14.69034 59.10272,-16.06799 1.43677,-0.74298 4.5629,-4.6342 6.94695,-8.64714 2.38404,-4.01295 6.2103,-9.32205 8.50279,-11.798 6.31625,-6.82174 6.70431,-7.98638 5.94428,-17.84 -0.84666,-10.97676 -2.06577,-15.73015 -5.03162,-19.61858 -5.95301,-7.8048 -8.41427,-15.44805 -9.97516,-30.97713 -1.60532,-15.97109 -2.65417,-19.39885 -6.49979,-21.24201 -4.59798,-2.20376 -8.02903,-6.9371 -12.62327,-17.4146 l -4.56439,-10.40942 0.0562,-16.27663 c 0.0309,-8.95215 0.29257,-16.65912 0.58149,-17.1266 0.28892,-0.46748 -0.1159,-3.04299 -0.8996,-5.72336 -3.73398,-12.7708 -7.22079,-45.42362 -5.61216,-52.55607 1.62189,-7.19124 11.16466,-28.925586 13.86808,-31.585556 0.96804,-0.95248 4.22235,-3.72649 7.23178,-6.16446 3.00944,-2.43797 6.93158,-5.7862 8.71587,-7.44051 1.78429,-1.6543 3.80929,-3.122 4.5,-3.26156 8.19532,-1.6558 17.02986,-4.41853 19.35931,-6.05401 3.58857,-2.51951 8.28913,-3.96315 15.26164,-4.68717 2.95081,-0.30641 7.25754,-1.47322 9.57051,-2.59291 2.31297,-1.11969 7.77367,-2.98239 12.13489,-4.13934 16.31055,-4.32688 33.17946,-0.51788 56.92949,12.85465 3.85,2.16776 9.19798,4.48332 11.88439,5.14569 2.68642,0.66238 6.51142,2.08798 8.5,3.16801 4.64755,2.52415 13.59723,8.93921 12.4748,8.94184 -0.47255,10e-4 2.19463,2.00935 5.92707,4.46276 11.49127,7.55345 15.44635,11.24712 16.41891,15.333676 0.99081,4.1633 -0.69466,15.1419 -3.33171,21.70155 -2.86442,7.12526 -4.27525,16.2898 -4.19664,27.26095 0.0423,5.90648 -0.41271,12.53905 -1.01116,14.73905 -1.42297,5.23109 -1.48827,7.73687 -0.73993,28.3941 0.57858,15.97087 0.4603,17.88487 -1.44559,23.39208 -3.65055,10.54858 -6.79534,14.57229 -14.74662,18.86807 -4.6725,2.52438 -6.06746,5.55229 -7.21179,15.65396 -0.57749,5.09778 -1.46577,11.16389 -1.97397,13.48024 -3.71831,16.94797 -4.75547,20.43593 -7.24308,24.35849 -4.73,7.45844 -2.8482,13.35306 4.26284,13.35306 3.47815,0 4.39328,1.20042 12.9598,17 4.02582,7.425 8.36667,15.17866 9.64632,17.23035 3.13637,5.02861 24.2774,19.14963 34.94485,23.3412 4.46518,1.7545 10.14532,4.3778 12.62254,5.82955 2.47722,1.45175 8.2739,3.91872 12.88151,5.48216 4.6076,1.56343 16.02746,6.66374 25.37746,11.33401 9.35,4.67028 19.7,9.47786 23,10.68351 3.3666,1.22999 11.04735,5.79863 17.5,10.40929 l 11.5,8.21719 5.25629,10.48637 c 2.92203,5.8295 5.76101,13.1509 6.39282,16.48637 1.34359,7.09318 8.09514,24.62253 15.40626,40 5.99038,12.59955 9.59766,25.20861 12.39572,43.32859 1.07618,6.96928 3.31625,17.39641 4.97792,23.17141 1.66167,5.775 3.93552,16.125 5.053,23 1.11748,6.875 3.12552,18.8 4.46232,26.5 1.3368,7.7 3.78002,22.47271 5.42937,32.82824 1.70168,10.68413 3.68068,19.8689 4.57521,21.23413 0.86701,1.32323 2.8082,2.65389 4.31374,2.95702 1.50554,0.30314 4.7571,1.54778 7.22569,2.76588 5.77939,2.85179 7.1397,6.20489 4.50329,11.10041 l -1.86635,3.4656 3.32927,6.55917 c 3.20324,6.31089 3.30621,6.87203 2.72033,14.82436 -0.33492,4.54586 -0.90887,10.18402 -1.27546,12.52926 -0.65873,4.21414 -0.59518,4.33123 5.42723,10 8.78019,8.26461 8.82508,9.54523 0.59879,17.08314 -3.69308,3.38403 -7.05146,6.15279 -7.46308,6.15279 -1.07377,0 -1.9921,2.71621 -3.01857,8.92823 -0.6438,3.89617 -1.73695,6.29521 -3.87313,8.5 -2.04485,2.11053 -4.24632,6.75589 -7.03506,14.84481 -2.23238,6.47516 -6.12531,16.37516 -8.65095,22 -2.52563,5.62483 -6.79789,16.04425 -9.4939,23.15426 -8.13041,21.44178 -25.12632,51.90995 -45.43879,81.45703 -10.60052,15.41981 -19.2192,31.04438 -21.02868,38.12231 -0.91302,3.57135 -2.49984,8.06836 -3.52626,9.99336 -1.02642,1.925 -3.07403,6.2 -4.55023,9.5 -2.20198,4.92243 -5.39853,8.69392 -17.79866,21 -8.31306,8.25 -17.01218,17.40291 -19.33139,20.3398 -4.83707,6.12532 -5.31006,9.59152 -2.58707,18.95822 1.94387,6.6867 1.31266,18.4621 -1.25873,23.4819 -0.90723,1.771 -3.72576,5.6951 -6.26341,8.7201 -8.55458,10.1975 -11.18579,13.9704 -12.66311,18.1575 -0.80916,2.2934 -1.97425,4.776 -2.58909,5.5168 -0.64345,0.7753 -0.96504,3.7829 -0.75773,7.0864 0.928,14.7875 -0.24653,27.3896 -4.23828,45.4742 -1.30231,5.9001 -1.34116,5.2135 2.2504,39.7651 0.57705,5.5513 0.70662,19.3718 0.31174,33.25 l -0.67577,23.75 -175.19614,0 -175.19614,0 -1.69081,-12.9099 z M 723.42843,907.56415 c 3.00756,-2.10658 10.2034,-14.10606 15.58427,-25.98767 2.49081,-5.5 6.99879,-15.4 10.01774,-22 6.44111,-14.08148 9.09357,-22.21772 14.52079,-44.54149 2.20072,-9.05218 5.88944,-21.63351 8.19717,-27.95851 2.30773,-6.325 6.20262,-17.125 8.65531,-24 l 4.45944,-12.5 -0.62752,-12 c -1.41553,-27.06897 -4.6591,-39.35573 -12.59055,-47.69341 -3.2269,-3.39218 -4.23069,-3.89963 -6.65886,-3.36632 -4.32343,0.94959 -7.14976,-2.80492 -11.77193,-15.63785 -4.17789,-11.59944 -6.31886,-14.42555 -8.92832,-11.78547 -0.80622,0.81568 -4.03404,8.90805 -7.17293,17.98305 -3.1389,9.075 -8.64648,23.7 -12.23907,32.5 l -6.53197,16 -0.75669,56.5 c -0.41618,31.075 -1.04429,59.425 -1.3958,63 -0.45023,4.579 -0.0347,9.94799 1.40589,18.16681 2.97562,16.97589 3.65011,31.15273 1.76894,37.18029 -2.22753,7.13734 -0.68547,9.46729 4.06409,6.14057 z"
       id="path3035"
       style="fill:#000000"
       inkscape:connector-curvature="0" />
  </g>
</svg>
