<?xml version="1.0" encoding="UTF-8" standalone="no"?>
<!-- Created with Inkscape (http://www.inkscape.org/) -->

<svg
   xmlns:dc="http://purl.org/dc/elements/1.1/"
   xmlns:cc="http://creativecommons.org/ns#"
   xmlns:rdf="http://www.w3.org/1999/02/22-rdf-syntax-ns#"
   xmlns:svg="http://www.w3.org/2000/svg"
   xmlns="http://www.w3.org/2000/svg"
   xmlns:sodipodi="http://sodipodi.sourceforge.net/DTD/sodipodi-0.dtd"
   xmlns:inkscape="http://www.inkscape.org/namespaces/inkscape"
   version="1.1"
   width="800"
   height="1200"
   id="svg2"
   inkscape:version="0.48.4 r9939"
   sodipodi:docname="player-3.svg">
  <sodipodi:namedview
     pagecolor="#ffffff"
     bordercolor="#666666"
     borderopacity="1"
     objecttolerance="10"
     gridtolerance="10"
     guidetolerance="10"
     inkscape:pageopacity="0"
     inkscape:pageshadow="2"
     inkscape:window-width="1164"
     inkscape:window-height="608"
     id="namedview7"
     showgrid="false"
     inkscape:zoom="0.22425739"
     inkscape:cx="372.04724"
     inkscape:cy="526.18109"
     inkscape:window-x="10"
     inkscape:window-y="34"
     inkscape:window-maximized="0"
     inkscape:current-layer="svg2" />
  <defs
     id="defs4" />
  <metadata
     id="metadata7">
    <rdf:RDF>
      <cc:Work
         rdf:about="">
        <dc:format>image/svg+xml</dc:format>
        <dc:type
           rdf:resource="http://purl.org/dc/dcmitype/StillImage" />
        <dc:title></dc:title>
      </cc:Work>
    </rdf:RDF>
  </metadata>
  <g
     id="layer1"
     transform="translate(-20.797128,-39.4758)">
    <path
       style="fill:#000000"
       id="path3074"
       d="m 250.28894,1205.9039 c 0.079,-43.1236 0.018,-42.4182 5.5121,-63.6728 l 3.0804,-11.9169 -0.2789,-27.5831 c -0.3112,-30.7805 -0.2036,-31.4901 8.6174,-56.8383 4.458,-12.8104 4.074,-14.9162 -4.4769,-24.549 -7.1156,-8.0159 -8.3317,-10.1837 -10.5133,-18.7403 -1.5038,-5.89812 -4.4756,-15.76862 -12.6319,-41.95562 -1.6274,-5.225 -6.0159,-15.81344 -9.7523,-23.52986 -3.7363,-7.71642 -7.7649,-17.63066 -8.9524,-22.03164 -2.7539,-10.20591 -6.9869,-21.77366 -11.6874,-31.9385 -24.2079,-52.34995 -29.9808,-69.79009 -38.5628,-116.5 -4.0937,-22.28059 -4.1435,-22.83643 -5.1088,-57 -1.3672,-48.3832 -0.7253,-57.8529 6.1342,-90.5 1.0401,-4.95 2.4173,-13.5 3.0606,-19 1.094,-9.35482 4.6461,-27.90666 7.0843,-37 0.5898,-2.2 4.1396,-9.85 7.8883,-17 5.6103,-10.70072 7.1086,-14.59181 8.4716,-22 0.9107,-4.95 4.0817,-16.425 7.0466,-25.5 2.965,-9.075 6.5776,-22.125 8.028,-29 3.1981,-15.15957 10.7493,-34.19595 17.1173,-43.15256 2.4821,-3.49109 6.5041,-10.49034 8.9376,-15.55389 3.5364,-7.35808 5.2767,-9.79946 8.6682,-12.16018 2.3339,-1.62455 6.2685,-5.05524 8.7435,-7.62376 2.475,-2.56851 5.6953,-5.29867 7.1563,-6.06702 1.4609,-0.76835 7.9859,-1.8909 14.5,-2.49456 10.2372,-0.94868 14.4209,-1.95989 30.8437,-7.45508 23.74484,-7.94519 46.70409,-13.80519 70,-17.86644 4.4,-0.76706 12.16797,-3.02775 17.26216,-5.02375 5.09418,-1.996 11.41749,-4.09132 14.05179,-4.65628 7.11154,-1.52515 10.51651,-4.06046 16.7212,-12.45046 7.69895,-10.41052 10.27352,-15.81407 11.43313,-23.99602 2.21182,-15.60599 0.41726,-24.42697 -6.89866,-33.90976 -5.25918,-6.81687 -6.7003,-10.48255 -10.16893,-25.86597 -3.50479,-15.54381 -3.63903,-19.87862 -0.74162,-23.94766 3.93087,-5.52041 3.61443,-11.00584 -1.28592,-22.29102 l -4.33603,-9.98559 -0.37878,-14.5 c -0.55758,-21.34407 3.60358,-42.70728 11.55444,-59.32004 5.99274,-12.5214 9.62458,-15.99725 18.31463,-17.52797 3.47274,-0.61171 7.92474,-2.1772 9.89333,-3.47887 6.93737,-4.587124 10.35892,-5.836894 18.12254,-6.619554 7.59277,-0.76543 8.0229,-0.95258 13.5873,-5.91205 6.44716,-5.74626 10.19112,-6.92745 16.73488,-5.27972 5.92292,1.49141 23.85365,4.1382 28.03433,4.1382 2.39862,0 5.59549,1.43488 10.75658,4.82796 4.039,2.65538 9.44886,6.14288 12.02192,7.75 2.57305,1.607124 9.2167,6.661644 14.76366,11.232254 13.83894,11.40309 16.07421,16.32852 19.63315,43.26164 2.65726,20.10947 2.31655,28.10303 -1.91998,45.04551 -4.42967,17.71489 -4.60375,22.20567 -1.06302,27.42322 4.57293,6.73858 4.2342,12.98012 -1.68014,30.95942 -3.884,11.80716 -7.61,18.42648 -11.91196,21.16188 -8.03193,5.10709 -8.89918,6.21563 -11.46483,14.65459 -2.23431,7.3491 -5.81546,30.738 -7.26932,47.47672 -0.6405,7.37425 1.20308,25.1916 3.47391,33.57379 2.19354,8.09688 7.463,13.00785 25.87318,24.11299 8.18788,4.93898 19.16206,11.9863 24.38706,15.66071 10.68895,7.51685 26.7301,16.54193 47.6404,26.80346 9.85909,4.83826 14.78361,7.84258 16.26483,9.92277 4.71708,6.62452 11.69591,36.32971 14.00998,59.63309 0.54616,5.5 1.23903,31.375 1.53971,57.5 0.30068,26.125 0.82389,56.05 1.16268,66.5 l 0.61599,19 -2.57428,3.5 c -5.36851,7.29906 -5.69839,8.51077 -6.88108,25.2749 -0.95544,13.54309 -0.86492,20.54974 0.54759,42.38749 0.93073,14.38931 2.64079,33.06431 3.80013,41.5 1.96763,14.31702 2.02857,16.66844 0.91582,35.33761 -2.81945,47.30357 -4.74618,64.08963 -11.01905,96 -3.23439,16.45352 -4.60042,26.30465 -5.54671,40 -0.86225,12.47921 -5.31609,29.34133 -12.84552,48.63278 -3.51345,9.00197 -7.88461,20.41724 -9.71367,25.36724 -4.24822,11.4969 -7.5031,16.2953 -14.9306,22.0106 -6.96284,5.3578 -12.53733,12.2591 -14.09106,17.445 -0.84461,2.8191 -0.72912,5.9576 0.50484,13.7192 1.96973,12.3894 2.02455,22.2234 0.18578,33.3252 -0.77431,4.675 -1.67763,18.175 -2.00737,30 -0.71414,25.6098 -2.17989,49.0563 -4.09469,65.5 -2.36168,20.2812 -5.57859,46.8277 -6.08933,50.25 l -0.48502,3.25 -80.32465,0 -80.32466,0 -0.53834,-24.75 c -0.46584,-21.4169 -0.8933,-26.4967 -3.17412,-37.72 -2.6247,-12.9154 -4.28479,-16.53 -7.5918,-16.53 -4.35015,0 -5.93281,3.1394 -10.39271,20.6154 -2.40234,9.4134 -6.05206,22.4634 -8.1105,29 -2.05844,6.5365 -4.71823,15.7096 -5.91064,20.3846 l -2.16802,8.5 -77.43697,0.256 -77.43696,0.2561 0.075,-40.7561 z M 617.014,936.9942 c 6.87691,-3.55342 7.17357,-7.10599 2.19354,-26.26801 -4.65997,-17.93049 -7.12665,-21.60738 -9.94773,-14.82831 -1.60088,3.84692 -4.54547,25.5569 -4.54547,33.513 0,8.78409 4.54853,11.58848 12.29966,7.58332 z M 265.52364,849.16319 c 2.1142,-2.68776 7.267,-20.17255 9.7102,-32.94903 0.8344,-4.36355 1.7597,-13.36355 2.0562,-20 0.2965,-6.63645 1.2376,-18.81628 2.0913,-27.06628 2.1897,-21.15949 2.0446,-36.886 -0.4428,-48 -1.3253,-5.92136 -2.2401,-14.8152 -2.6743,-26 -0.8801,-22.67115 -2.3261,-40.27168 -3.6354,-44.25 -1.4634,-4.44643 -4.2567,-4.25348 -7.2382,0.5 -9.0283,14.39417 -14.0675,22.96015 -18.2761,31.06692 l -4.8368,9.31693 0.2241,20.18307 c 0.2427,21.85638 1.6644,32.62337 7.106,53.81861 3.839,14.95276 4.8207,22.40647 6.1065,46.36447 1.1666,21.73792 2.305,30.90091 4.4883,36.12636 1.6815,4.02432 2.7184,4.19755 5.321,0.88895 z"
       inkscape:connector-curvature="0" />
  </g>
</svg>
