<?xml version="1.0" encoding="UTF-8" standalone="no"?>
<!-- Created with Inkscape (http://www.inkscape.org/) -->

<svg
   xmlns:dc="http://purl.org/dc/elements/1.1/"
   xmlns:cc="http://creativecommons.org/ns#"
   xmlns:rdf="http://www.w3.org/1999/02/22-rdf-syntax-ns#"
   xmlns:svg="http://www.w3.org/2000/svg"
   xmlns="http://www.w3.org/2000/svg"
   xmlns:sodipodi="http://sodipodi.sourceforge.net/DTD/sodipodi-0.dtd"
   xmlns:inkscape="http://www.inkscape.org/namespaces/inkscape"
   version="1.1"
   width="800"
   height="1200"
   id="svg2"
   inkscape:version="0.48.4 r9939"
   sodipodi:docname="player-4.svg">
  <sodipodi:namedview
     pagecolor="#ffffff"
     bordercolor="#666666"
     borderopacity="1"
     objecttolerance="10"
     gridtolerance="10"
     guidetolerance="10"
     inkscape:pageopacity="0"
     inkscape:pageshadow="2"
     inkscape:window-width="1164"
     inkscape:window-height="608"
     id="namedview7"
     showgrid="false"
     inkscape:zoom="0.22425739"
     inkscape:cx="372.04724"
     inkscape:cy="526.18109"
     inkscape:window-x="10"
     inkscape:window-y="34"
     inkscape:window-maximized="0"
     inkscape:current-layer="svg2" />
  <defs
     id="defs4" />
  <metadata
     id="metadata7">
    <rdf:RDF>
      <cc:Work
         rdf:about="">
        <dc:format>image/svg+xml</dc:format>
        <dc:type
           rdf:resource="http://purl.org/dc/dcmitype/StillImage" />
        <dc:title></dc:title>
      </cc:Work>
    </rdf:RDF>
  </metadata>
  <g
     id="layer1"
     transform="translate(47.906441,31.156024)">
    <path
       style="fill:#000000"
       id="path2996"
       d="m 186.69371,1164.3979 c -1.47988,-6.8336 -2.57695,-19.1397 -3.01924,-33.8677 -0.29349,-9.7731 -1.14832,-19.4174 -2.07538,-23.4148 -1.01778,-4.3886 -1.3191,-8.2446 -0.85037,-10.8823 0.39928,-2.2469 0.64271,-12.2579 0.54096,-22.2466 -0.166,-16.2952 0.0315,-18.7403 1.9222,-23.7935 1.93218,-5.1642 2.01395,-6.3328 0.98451,-14.0686 -0.82356,-6.1887 -0.83226,-13.6226 -0.0327,-27.9002 0.91871,-16.40439 0.86182,-20.23219 -0.36195,-24.35309 -2.05289,-6.9128 -20.42294,-41.52355 -27.08633,-51.03293 -7.22608,-10.31238 -8.14677,-12.69733 -9.53144,-24.69027 -2.13152,-18.46138 -6.11026,-33.59146 -18.53934,-70.5 -6.70647,-19.91509 -8.35668,-26.19692 -13.00346,-49.5 -7.27536,-36.48516 -8.76339,-57.90131 -5.94069,-85.5 1.97322,-19.29299 2.82416,-63.72148 1.7525,-91.5 -0.44559,-11.55 -0.53065,-24.6 -0.18902,-29 1.44555,-18.61784 4.01336,-37.50356 6.05047,-44.5 2.34418,-8.05107 2.92437,-23.93028 1.47978,-40.5 -2.0361,-23.35446 -2.70036,-43.19094 -1.61544,-48.24106 1.87798,-8.74165 12.7676,-37.29536 17.14233,-44.94894 3.87321,-6.77619 14.88736,-21.51819 20.56923,-27.53109 1.71624,-1.81624 5.66449,-3.71703 11.87324,-5.7161 11.28964,-3.63499 17.28133,-6.60893 36.25228,-17.99364 8.04487,-4.82781 19.12701,-11.15456 24.62701,-14.05944 21.65798,-11.43891 32.15899,-17.51126 35.70494,-20.64689 2.03772,-1.80192 5.47987,-4.18172 7.64923,-5.28844 5.02906,-2.56564 8.13944,-7.61238 8.83296,-14.33192 0.87245,-8.45319 -1.5317,-39.37688 -3.67283,-47.24248 -1.04803,-3.85 -2.41318,-9.88635 -3.03367,-13.41412 -1.66155,-9.44671 -3.53803,-13.29239 -8.51657,-17.45393 -2.45534,-2.05241 -5.20932,-5.17173 -6.11994,-6.93181 -2.26421,-4.37635 -4.31792,-12.41874 -4.33225,-16.96524 -0.007,-2.0708 -0.66817,-6.3458 -1.47031,-9.5 -0.80213,-3.15419 -2.37713,-9.36554 -3.5,-13.803 -2.44049,-9.64463 -2.79785,-29.95624 -0.66737,-37.9319 1.24729,-4.66933 1.1712,-5.42987 -1.15056,-11.5 -2.17701,-5.6917 -3.76514,-11.53331 -8.45403,-31.096584 -1.01663,-4.24161 -0.86743,-5.09107 1.93193,-11 1.66851,-3.52188 5.68306,-9.55342 8.92123,-13.40342 6.60373,-7.85146 7.11032,-8.81656 11.42372,-21.763 3.42806,-10.28912 8.35423,-18.36106 12.81277,-20.99479 3.70249,-2.18711 9.14075,-2.33788 9.14075,-0.25341 0,0.88417 0.91377,1.47934 2.25,1.46552 1.2375,-0.0128 3.6,0.0678 5.25,0.17904 1.65,0.11128 4.8,-0.3207 7,-0.95994 4.92087,-1.42984 6.81026,-1.48445 6,-0.17342 -0.33992,0.55 0.11008,1 1,1 0.88992,0 1.37824,-0.38799 1.08517,-0.86219 -0.72827,-1.17836 12.97603,-0.77671 23.75514,0.69623 10.14188,1.38586 14.03126,3.06507 16.0579,6.93289 2.96767,5.66372 5.03019,6.90003 13.76415,8.25041 13.79527,2.13293 21.24087,5.17365 28.74443,11.73897 6.7249,5.88402 7.49777,6.36375 17.09321,10.60989 3.025,1.33861 6.90587,3.49133 8.62416,4.78382 12.10077,9.10214 14.56811,11.32286 16.77769,15.10069 1.36693,2.33711 2.97437,6.43926 3.5721,9.11588 0.59773,2.67663 4.44811,11.779394 8.55641,20.228374 6.68658,13.75138 7.46964,15.97401 7.46964,21.20191 0,6.03064 -2.44878,16.20313 -3.9005,16.20313 -0.45266,0 -1.26575,4.47295 -1.80686,9.93988 -1.03777,10.48483 -2.67684,14.46706 -6.59553,16.0243 -4.64825,1.84717 -6.22209,2.34816 -6.92124,2.2032 -0.39828,-0.0826 -2.34785,3.17973 -4.33239,7.24956 -2.81164,5.76604 -3.90938,9.69253 -4.97225,17.78526 -0.7502,5.71207 -1.81805,11.5798 -2.37299,13.03941 -1.29909,3.41686 -7.90339,10.73381 -10.62096,11.76703 -1.71596,0.6524 -2.42406,2.4821 -3.87103,10.00253 -0.974,5.06224 -2.44779,11.06815 -3.27508,13.34645 -2.54046,6.99629 -3.42966,17.30244 -2.28652,26.50167 1.63235,13.1361 3.91224,16.21198 13.45535,18.15313 9.91575,2.01694 18.24162,4.90195 21.20422,7.3475 4.32135,3.56716 18.22094,9.06292 35.65147,14.09623 8.72063,2.5182 20.19563,6.34508 25.5,8.50416 5.30437,2.15909 12.56931,5.01449 16.14431,6.34532 3.575,1.33084 10.55,4.44279 15.5,6.91544 4.95,2.47266 11.95969,5.47025 15.57708,6.66132 7.59578,2.501 10.08675,4.81007 18.35377,17.01351 6.68635,9.87013 10.50673,17.2107 15.09451,29.00298 1.84045,4.73062 5.03282,12.42612 7.09416,17.10112 3.70809,8.40975 3.75635,8.68812 4.54525,26.21784 0.43855,9.74481 0.4116,23.6335 -0.0599,30.86374 -0.97674,14.97811 0.008,21.29773 6.22116,39.91842 1.92689,5.775 3.81174,13.2 4.18854,16.5 0.3768,3.3 1.99768,12.29402 3.60194,19.9867 3.68977,17.69298 4.66536,29.25331 5.35998,63.5133 0.30666,15.125 1.05578,34.7 1.66472,43.5 1.27993,18.49672 0.62987,83.81382 -0.92557,93 -0.55877,3.3 -1.54518,10.275 -2.19201,15.5 -3.40541,27.50818 -7.38976,45.9017 -17.65112,81.48538 -5.20049,18.03392 -8.29527,34.81043 -9.18165,49.7729 l -0.79645,13.4443 -5.04317,8.89871 c -7.63738,13.47621 -12.02229,23.94511 -14.19852,33.89871 -1.08225,4.95 -3.17127,12.15 -4.64226,16 -3.86446,10.1144 -4.75434,17.615 -2.99256,25.2236 0.79259,3.423 1.87812,10.623 2.4123,15.99999 0.59195,5.9586 2.35726,14.22 4.52051,21.1554 2.86748,9.193 3.54929,12.9744 3.54929,19.6846 0,4.5681 0.63497,11.3726 1.41105,15.121 1.38467,6.688 2.02531,25.2655 1.87307,54.3154 -0.0418,7.975 0.0344,23.1625 0.16942,33.75 l 0.24541,19.25 -83.27858,0 -83.27857,0 -1.16366,-5.75 c -2.81117,-13.8909 -8.41514,-35.2904 -11.18087,-42.6956 -4.18515,-11.2056 -6.44327,-19.261 -7.85835,-28.0331 -0.66653,-4.1318 -1.80307,-8.3018 -2.52566,-9.2668 -1.18405,-1.5812 -1.25377,-1.5169 -0.706,0.6519 0.3905,1.546 0.23447,2.1756 -0.43643,1.761 -0.57432,-0.355 -1.49446,-0.088 -2.04475,0.5936 -2.55684,3.1662 -11.27887,33.9853 -18.81688,66.489 l -3.76858,16.25 -81.30126,0 -81.30126,0 -0.48725,-2.25 z m 12.13226,-349.93749 c -0.31922,-0.79773 -0.55618,-0.56078 -0.60416,0.60417 -0.0434,1.05416 0.19292,1.64479 0.52522,1.3125 0.33229,-0.33229 0.36781,-1.1948 0.0789,-1.91667 z m 4.34777,-10.90916 c 1.08302,-3.39013 1.96912,-7.0465 1.96912,-8.12526 0,-1.07876 1.37628,-7.43264 3.05839,-14.11973 1.68211,-6.68709 4.14644,-17.16382 5.47627,-23.28161 1.32983,-6.11779 3.6139,-14.89279 5.0757,-19.5 3.17812,-10.01661 5.34322,-27.24824 4.38214,-34.87674 -0.38111,-3.025 -2.30603,-14.275 -4.27761,-25 -1.97158,-10.725 -4.08281,-25.125 -4.69164,-32 -0.97773,-11.04079 -3.32341,-24.52905 -5.8192,-33.46181 -0.68581,-2.45463 -0.94593,-2.65323 -1.51903,-1.15976 -0.38033,0.99113 -0.39552,2.28097 -0.0338,2.86632 0.36177,0.58535 0.24961,0.81202 -0.24925,0.50371 -1.36689,-0.84479 -12.79541,39.26543 -15.39541,54.03265 -2.36842,13.4519 -1.41411,27.84571 3.52843,53.21889 5.95561,30.57394 7.67683,57.06746 4.90737,75.53553 -0.51395,3.42728 -0.35271,4.46803 0.69406,4.47978 1.05808,0.0119 1.02751,0.2275 -0.13646,0.96249 -1.61168,1.01769 -2.19704,4.33994 -1.31003,7.43509 0.48932,1.70742 0.64615,1.73788 1.46,0.28362 0.50148,-0.8961 1.79789,-4.40303 2.88091,-7.79317 z m 316.74119,-65.38662 c -0.12446,-1.50381 -0.56683,-2.12196 -1.12158,-1.56721 -0.50383,0.50383 -0.64543,1.6213 -0.31466,2.48327 0.90781,2.36572 1.66774,1.88103 1.43624,-0.91606 z m 0.22793,-5.40973 c 0,-0.49116 -0.65208,-1.14324 -1.44907,-1.44907 -0.96852,-0.37166 -1.26467,-0.0755 -0.89301,0.89301 0.60696,1.58173 2.34208,1.99368 2.34208,0.55606 z m -1.07029,-4.69032 c 0.132,3.59955 0.98651,1.00507 2.45654,-7.4586 3.2615,-18.77806 4.86264,-35.30604 4.98499,-51.45807 l 0.12876,-17 -3.84768,-11.90097 c -2.40734,-7.44595 -4.14453,-11.42065 -4.64068,-10.61787 -0.57485,0.93013 -0.98573,0.67585 -1.49362,-0.92439 -0.38535,-1.21412 -0.43454,-2.47358 -0.10933,-2.7988 0.32522,-0.32522 0.59131,-0.0663 0.59131,0.57536 0,0.64167 0.40787,1.16667 0.90638,1.16667 0.49851,0 0.67103,-0.9 0.38337,-2 -0.28766,-1.1 -0.92053,-2 -1.40638,-2 -0.48585,0 -0.88337,-0.675 -0.88337,-1.5 0,-0.825 -0.48032,-1.5 -1.06739,-1.5 -0.58706,0 -0.83871,0.7875 -0.55922,1.75 1.73203,5.96467 2.64639,54.5479 1.63267,86.75 -0.45095,14.3253 0.49126,22.99383 2.06519,19 0.75121,-1.90619 0.79148,-1.9101 0.85846,-0.0833 z m -1.73804,-3.49167 c 0.19708,-0.59125 0.78583,-1.075 1.30833,-1.075 0.5225,0 1.11125,0.48375 1.30833,1.075 0.19709,0.59125 -0.39166,1.075 -1.30833,1.075 -0.91667,0 -1.50542,-0.48375 -1.30833,-1.075 z m -0.22027,-107.0312 c -0.91163,-3.38556 -1.35433,-3.96093 -2.06732,-2.68689 -0.98849,1.76633 -0.22887,4.79309 1.20291,4.79309 0.49115,0 0.89301,0.75 0.89301,1.66667 0,0.91666 0.25458,1.41209 0.56572,1.10094 0.31115,-0.31115 0.0437,-2.50437 -0.59432,-4.87381 z m -309.28829,-11.0813 c -0.31922,-0.79773 -0.55618,-0.56078 -0.60416,0.60417 -0.0434,1.05416 0.19292,1.64479 0.52522,1.3125 0.33229,-0.33229 0.36781,-1.1948 0.0789,-1.91667 z"
       inkscape:connector-curvature="0" />
  </g>
</svg>
